<svg width="375" height="115" viewBox="0 0 375 115" fill="none" xmlns="http://www.w3.org/2000/svg">
<path d="M22.4639 66.7724C22.5115 67.1893 22.3448 67.4275 21.9755 67.499C21.6062 67.5705 21.1179 67.4871 20.5223 67.2607C19.9267 67.0345 19.4502 66.832 19.1048 66.6771C18.7593 66.5103 18.4258 66.3436 18.1042 66.153C16.8058 65.4621 15.6622 64.5926 14.6378 63.5563C13.6254 62.52 13.1131 61.7458 13.1131 61.2336C13.0178 59.2443 12.8987 56.2545 12.732 52.2642C12.5652 48.2738 12.4461 45.2841 12.3508 43.2949C12.3032 43.0685 12.3032 42.9017 12.3508 42.8064L11.4455 18.5665C11.255 18.6619 11.0763 18.769 10.8856 18.8763C10.6951 18.9954 10.5402 19.1025 10.3973 19.2216C10.2543 19.3408 10.0995 19.448 9.90889 19.5671C9.71835 19.6862 9.53966 19.8054 9.34903 19.9483C8.9798 20.2223 8.31273 20.2223 7.33596 19.9483C6.4545 19.6743 5.27524 19.043 3.81009 18.0781C2.51172 17.1967 1.52304 16.3033 0.83216 15.3742C0.0459862 14.3618 -0.180335 13.7067 0.141282 13.4327C0.284222 13.3373 0.39143 13.2659 0.486723 13.2302C1.86849 12.313 3.75054 11.0146 6.13288 9.34706C8.51523 7.67942 10.6832 6.17857 12.6367 4.80875C14.6021 3.45083 16.4604 2.1644 18.2114 0.961332C18.6283 0.687369 19.2953 0.687369 20.2245 0.961332C21.1536 1.23529 22.3448 1.86661 23.8218 2.83144C25.0725 3.71289 26.0612 4.60625 26.7998 5.53535C27.5859 6.54783 27.7884 7.17914 27.4191 7.40545C24.9772 9.15643 22.5234 10.8717 20.0815 12.5274C20.2602 12.8014 20.3554 13.0634 20.3554 13.2898C20.5818 18.2807 20.8915 25.7492 21.2608 35.7191C30.3137 28.0124 37.9491 19.4718 44.179 10.0975C44.4052 9.72823 45.0842 9.72823 46.192 10.0975C47.1092 10.3238 48.2885 10.9551 49.7179 11.9676C51.0044 12.849 52.0288 13.7424 52.7672 14.6715C53.4581 15.5529 53.6726 16.1723 53.3867 16.5416C48.8126 23.4621 43.4165 29.9777 37.1867 36.0645C38.0682 36.3385 38.914 36.6601 39.7477 37.0294C41.6417 37.8632 43.369 38.8637 44.9413 40.0429C46.5136 41.2223 47.8954 42.6873 49.0984 44.4384C50.3015 46.1893 50.9924 48.0356 51.1711 49.9772C51.2664 50.9063 51.1949 53.3958 50.9687 57.4576C50.921 58.339 50.8495 59.6732 50.7661 61.4718C50.6709 63.2704 50.5993 64.6045 50.5636 65.4859L49.6583 82.1025C49.6583 82.3288 49.6106 82.5075 49.5154 82.6266C49.4201 82.7458 49.2771 82.8053 49.0627 82.8291C48.8602 82.8529 48.6458 82.8529 48.4434 82.8291C48.2408 82.8053 47.9907 82.7458 47.7167 82.6505C47.4427 82.5551 47.1926 82.4598 46.9901 82.3764C46.7876 82.2811 46.5374 82.174 46.2635 82.031C45.9895 81.8881 45.799 81.8047 45.7156 81.7571C45.6203 81.7094 45.4892 81.638 45.2986 81.5546C44.0003 80.816 42.8568 79.9346 41.8324 78.9221C40.7721 77.862 40.2599 77.0759 40.3076 76.5637C40.4029 74.765 40.534 72.0373 40.7245 68.3924C40.9032 64.7475 41.0462 62.0197 41.1415 60.2211C41.1891 59.2563 41.2844 57.7911 41.4154 55.8258C41.5584 53.8603 41.6537 52.1093 41.7251 50.5608C41.7966 49.0124 41.8324 47.5234 41.8324 46.094C41.8324 44.9386 41.7371 43.9262 41.5584 43.0447C41.463 42.6754 41.3916 42.4015 41.3559 42.2109H41.2844H41.2129C40.8437 42.1156 40.4506 42.068 40.0337 42.068C39.2475 41.9727 38.5089 41.9488 37.8181 41.9964C36.0194 42.0918 34.1731 42.461 32.2791 43.1042C29.599 44.0333 26.0969 45.9868 21.7492 48.9885C21.9516 53.1576 22.1898 59.0657 22.4639 66.7724ZM42.8925 42.6754L42.821 42.604H42.8925V42.6754Z" fill="url(#paint0_linear_1304_11)"/>
<path d="M105.488 53.2767C106.739 54.3845 107.429 55.3254 107.56 56.1116C107.655 56.4808 107.489 56.6953 107.072 56.731C105.404 56.9573 103.725 56.9335 102.021 56.6595C98.6504 56.6595 95.7437 56.7072 93.3021 56.8025C84.1657 57.1717 76.4946 58.6725 70.3123 61.305C66.6674 62.8297 63.7847 64.8308 61.6525 67.3323C60.64 69.7741 59.5799 72.1564 58.4721 74.4672C58.0552 75.3486 56.4233 74.8603 53.5526 73.0141C52.4924 72.3232 51.5395 71.5846 50.7175 70.7985C49.6098 69.7384 49.0975 68.976 49.1929 68.5115C49.5145 65.736 50.5747 63.2466 52.3733 61.0311C53.1595 59.0419 53.8741 57.1121 54.5174 55.2182C57.2928 47.2733 59.2225 39.1972 60.3303 30.9784C60.9735 25.9874 61.2713 22.0685 61.2356 19.2098C61.188 17.2682 60.9855 15.541 60.6163 14.0163C60.4256 13.2302 60.1993 12.5632 59.9254 12.0033C59.7824 11.7293 59.6037 11.3839 59.3655 10.967L59.2941 10.8955C59.1987 10.7526 59.0915 10.5977 58.9486 10.4072C58.2101 9.52575 57.9837 8.88251 58.2577 8.46557C58.4841 8.14396 59.163 8.14396 60.2708 8.46557C62.7603 9.20408 64.9283 10.7288 66.7745 13.0396C69.3118 16.1842 70.6102 20.246 70.6578 25.2251C70.6578 28.322 70.2885 32.4315 69.55 37.5534C68.9544 41.8416 68.1444 46.0702 67.1319 50.2273C66.989 50.9182 66.8104 51.7043 66.5721 52.5858C68.9663 51.8949 71.6703 51.2994 74.672 50.7872C78.5553 50.1916 82.9984 49.8462 88.0371 49.7508C87.6677 49.4293 87.2985 49.1076 86.9292 48.786C84.6183 46.6658 82.7839 44.1881 81.426 41.3771C80.0681 38.5659 79.3177 35.6595 79.1747 32.6578C79.1747 32.3363 79.27 32.1099 79.4487 32.0027C79.6273 31.8836 79.8775 31.8478 80.1753 31.8955C80.4731 31.9432 80.7827 32.0146 81.1044 32.098C81.426 32.1933 81.7714 32.3243 82.1408 32.5149C82.51 32.7055 82.7958 32.8365 83.0102 32.9318C83.2127 33.0271 83.4153 33.1224 83.594 33.2058C84.8804 33.9443 86.0358 34.8258 87.0602 35.8382C88.0728 36.8507 88.585 37.613 88.585 38.1252C88.6802 40.4837 89.0975 42.6039 89.836 44.4979C90.2048 45.4269 90.6929 46.368 91.2889 47.3328C91.2889 47.3805 91.3129 47.4281 91.3601 47.4758C91.4082 47.5711 91.4555 47.6425 91.5036 47.6782L91.8492 48.2381C91.8964 48.2858 91.9801 48.381 92.087 48.512C92.2064 48.655 92.2661 48.7384 92.2661 48.786C92.3614 48.8813 92.4327 48.9528 92.4683 48.9885L92.6705 49.1315C92.8495 49.2268 92.9921 49.2982 93.0874 49.334C93.2308 49.3816 93.3021 49.4054 93.3261 49.4054C93.3493 49.4054 93.3974 49.4173 93.4686 49.4411C93.5399 49.465 93.6236 49.4888 93.7074 49.5126C93.8027 49.5364 93.874 49.5484 93.9096 49.5484C93.9568 49.5484 94.029 49.5603 94.1118 49.5841C94.2071 49.6079 94.2552 49.6437 94.2552 49.6913C94.3505 49.6913 94.5287 49.7151 94.8146 49.7628C95.7794 49.7628 97.2803 49.7866 99.3176 49.8342C99.9126 49.8342 100.997 50.275 102.569 51.1445C103.546 51.6806 104.511 52.3952 105.488 53.2767ZM92.6705 49.191L92.5992 49.1195C92.6465 49.1195 92.6705 49.1434 92.6705 49.191ZM92.6705 49.1195C92.7186 49.1672 92.8495 49.2386 93.0874 49.322C93.0402 49.2744 92.968 49.2386 92.8852 49.2149C92.7899 49.2029 92.7186 49.1672 92.6705 49.1195Z" fill="url(#paint1_linear_1304_11)"/>
<path d="M144.464 42.33C144.142 53.5983 146.357 64.14 151.111 73.979C151.528 74.8127 151.361 75.2535 150.623 75.2892C149.883 75.3369 149.24 75.1939 148.681 74.8723C146.275 73.9074 144.297 72.4543 142.725 70.5127C142.26 69.9648 142.01 69.6551 141.962 69.6074C141.867 69.5121 141.796 69.4168 141.76 69.3334C141.712 69.3334 141.557 69.2143 141.308 68.988C141.057 68.7617 140.819 68.5473 140.616 68.3686C140.414 68.178 140.306 68.047 140.306 67.9517L140.033 67.7492C139.985 67.7492 139.842 67.6539 139.616 67.4752C139.521 67.38 139.425 67.2966 139.342 67.2013H139.27C139.27 67.1536 139.246 67.1299 139.199 67.1299L139.27 67.2013C138.996 66.975 138.734 66.7844 138.508 66.6534L138.437 66.5818C138.388 66.5343 138.317 66.4866 138.234 66.439C138.139 66.3913 138.055 66.3436 137.996 66.296C137.924 66.2483 137.841 66.2007 137.758 66.1531C137.662 66.1055 137.567 66.0578 137.483 66.0101C137.388 65.9625 137.233 65.891 136.995 65.8077C137.138 65.8553 137.293 65.9268 137.483 66.0101C137.388 65.9625 137.246 65.8791 137.031 65.7719C136.829 65.6528 136.674 65.5694 136.578 65.5337C136.257 65.3908 135.911 65.2359 135.541 65.0453C135.446 64.9977 135.292 64.9262 135.053 64.8428L135.197 64.9143C134.971 64.7713 134.339 64.5451 133.326 64.2234C132.683 63.9971 131.969 63.7827 131.182 63.604C131.182 63.5564 131.159 63.5326 131.111 63.5326C130.884 63.4849 130.718 63.4611 130.623 63.4611C130.301 63.3658 129.979 63.2943 129.658 63.2586C128.228 62.9847 126.775 62.7702 125.297 62.6392C122.618 62.4605 119.831 62.663 116.924 63.2586C116.412 63.3539 115.542 63.1156 114.292 62.5677C113.184 62.0555 111.957 61.2694 110.623 60.2092C109.979 59.6613 109.277 58.9109 108.514 57.9579C107.752 57.0169 107.764 56.4452 108.55 56.2665C113.72 55.254 118.984 55.3731 124.333 56.6477C129.681 57.9222 134.72 60.1021 139.425 63.1871C138.687 61.1979 138.044 59.1968 137.483 57.1599C136.602 53.8366 135.958 50.4179 135.541 46.916C132.028 47.2376 128.299 46.2966 124.321 44.081C119.377 41.2223 115.78 37.6608 113.517 33.4203C112.219 31.0618 111.492 28.5008 111.337 25.7373C111.17 22.962 111.492 20.3176 112.266 17.7686C113.053 15.2314 114.255 12.8253 115.864 10.5621C116.09 10.1928 116.769 10.1928 117.877 10.5621C118.758 10.7884 119.926 11.4197 121.403 12.4322C122.689 13.3136 123.69 14.1951 124.381 15.1004C125.071 16.0056 125.297 16.637 125.071 17.0062C122.534 20.6512 121.081 24.3199 120.712 28.0125C120.343 31.4787 120.831 34.54 122.165 37.22C122.344 37.6369 122.558 38.03 122.785 38.3992C122.832 38.3992 122.88 38.4469 122.927 38.5422C122.975 38.6375 123.022 38.7209 123.07 38.7804C123.118 38.8519 123.153 38.9114 123.177 38.9591C123.201 39.0068 123.237 39.0544 123.285 39.1021L123.356 39.245C123.499 39.3879 123.607 39.4951 123.702 39.5904L123.773 39.6619V39.7334C124 39.781 124.142 39.8048 124.19 39.8048C123.916 39.7095 123.94 39.7095 124.261 39.8048C124.44 39.8525 124.559 39.8763 124.607 39.8763C124.976 39.9716 125.346 40.0192 125.714 40.0192H125.917L126.263 40.0907C127.549 40.0907 128.919 39.8405 130.348 39.3283C132.29 38.6851 133.874 37.6012 135.125 36.0765C135.494 27.536 137.317 19.3885 140.592 11.6341C140.688 11.4078 140.867 11.2768 141.14 11.253C141.414 11.2291 141.748 11.2887 142.141 11.4316C142.534 11.5746 142.927 11.7294 143.32 11.92C143.714 12.1105 144.13 12.325 144.571 12.5751C145.011 12.8253 145.333 13.0278 145.536 13.1588C145.738 13.3017 145.941 13.409 146.12 13.5043C147.406 14.3857 148.406 15.2791 149.098 16.2082C149.741 17.0419 149.979 17.6613 149.788 18.0782C148.12 22.0448 146.834 26.1066 145.905 30.2638C145.357 32.9438 144.964 35.6596 144.726 38.435C144.821 38.5779 144.893 38.6852 144.929 38.7804C145.619 39.6143 145.845 40.2336 145.619 40.6505C145.321 41.1985 144.929 41.7821 144.464 42.33Z" fill="url(#paint2_linear_1304_11)"/>
<path d="M191.551 11.4557C192.801 12.3371 193.79 13.2305 194.529 14.1596C195.172 14.9933 195.41 15.6128 195.22 16.0297C193.278 19.627 191.67 23.3196 190.371 27.1074C189.776 28.906 189.24 30.7761 188.775 32.7177C188.954 32.944 189.145 33.1584 189.335 33.3371C190.074 34.2662 190.276 34.8856 189.954 35.2072C189.311 35.898 188.573 36.708 187.739 37.6253C187.179 40.9485 186.881 44.2719 186.834 47.5952C186.739 51.7523 186.952 55.3019 187.453 58.256C187.679 59.3637 187.941 60.3285 188.216 61.1623C188.537 61.3053 188.859 61.4601 189.18 61.6507C190.467 62.3893 191.622 63.2707 192.646 64.2832C193.659 65.3433 194.171 66.1057 194.171 66.5702C194.171 66.6655 194.171 66.7608 194.171 66.8799C194.171 66.999 194.171 67.1062 194.171 67.2253C194.171 67.3445 194.171 67.4397 194.171 67.535C194.171 68.2736 193.48 68.4403 192.098 68.0234C188.775 66.9633 185.702 65.0217 182.891 62.2106C181.045 60.3166 179.723 58.2441 178.948 55.9809C178.4 54.3609 177.983 52.5146 177.697 50.442L177.007 51.5498C175.255 54.1822 173.612 56.8862 172.087 59.6496C171.896 60.0189 171.646 60.5549 171.324 61.2458C171.003 61.9366 170.717 62.5202 170.455 63.0087C170.205 63.497 169.883 64.0092 169.526 64.5691C169.156 65.117 168.739 65.5815 168.275 65.9508C167.81 66.3201 167.335 66.6179 166.822 66.8561C165.249 67.404 163.153 66.9037 160.521 65.3314C157.661 63.6637 155.696 61.8413 154.636 59.864C154.362 59.3518 154.124 58.8158 153.945 58.2322C153.754 57.6604 153.612 57.0171 153.493 56.3263C153.373 55.6354 153.29 55.0637 153.255 54.6349C153.207 54.1941 153.147 53.5271 153.076 52.6218C153.004 51.7166 152.945 51.1567 152.898 50.9304C151.646 37.3632 152.481 23.7364 155.386 10.074C155.53 9.47838 156.292 9.5141 157.71 10.1811C159.115 10.8481 160.187 11.4437 160.925 11.944C163.654 13.7903 164.869 15.315 164.594 16.518C163.165 23.2123 162.284 30.0496 161.962 37.0178C161.641 42.8306 161.712 48.6791 162.164 54.5396C166.595 46.1419 172.04 38.3637 178.508 31.2049C179.841 23.4982 182.319 16.2918 185.916 9.59748C186.143 9.22825 186.834 9.22825 187.989 9.59748C188.894 9.81189 190.074 10.4313 191.551 11.4557Z" fill="url(#paint3_linear_1304_11)"/>
<path d="M256.504 3.48666C258.863 5.42824 259.804 6.78615 259.34 7.57231C256.886 11.9557 255.278 16.7561 254.491 21.9733C253.706 27.1906 253.824 32.3125 254.837 37.3511C255.016 38.3635 253.956 38.2921 251.657 37.1486C251.287 36.9699 251.014 36.827 250.823 36.7317C249.668 35.9932 248.607 35.1117 247.642 34.0992C246.808 33.2178 246.344 32.4555 246.26 31.8122C244.832 24.4747 245.153 17.2207 247.225 10.0738C247.178 10.0738 247.142 10.0738 247.118 10.0738C247.094 10.0738 247.059 10.0738 247.011 10.0738C242.116 10.9075 237.172 11.5984 232.193 12.1464C232.145 13.7186 232.074 16.089 231.99 19.2813C231.621 29.3465 231.085 44.4385 230.395 64.5689C230.395 64.8429 230.311 65.0573 230.156 65.1882C229.989 65.3312 229.775 65.3669 229.501 65.3312C229.227 65.2835 228.941 65.2121 228.667 65.1287C228.393 65.0334 228.083 64.9024 227.738 64.7118C227.393 64.5212 227.142 64.3902 226.976 64.2949C226.809 64.1996 226.642 64.0924 226.451 63.9495C225.248 63.2586 224.188 62.3772 223.271 61.317C222.306 60.3046 221.818 59.5422 221.818 59.03C221.865 57.6007 221.949 55.4447 222.056 52.5502C222.175 49.6676 222.246 47.5116 222.294 46.0703C222.806 31.0737 223.176 20.0079 223.402 12.9087C217.446 13.3733 211.466 13.6234 205.463 13.671C208 18.9835 208.881 24.57 208.095 30.4305C207.905 31.5859 206.57 31.3715 204.081 29.8111C202.878 29.1203 201.818 28.2387 200.9 27.1786C199.889 26.0709 199.424 25.3086 199.519 24.8916C200.353 18.7096 199.376 13.0992 196.612 8.06068C196.565 8.01305 196.517 7.91775 196.47 7.78672C196.422 7.64378 196.398 7.50084 196.398 7.33409C196.398 7.16732 196.434 7.0363 196.505 6.91719C196.577 6.79807 196.696 6.73851 196.887 6.73851C200.949 6.69086 204.962 6.57175 208.929 6.39307C213.777 6.16676 218.697 5.7975 223.676 5.28531C223.676 4.77311 223.688 4.01077 223.712 2.99829C223.736 1.98581 223.771 1.24731 223.819 0.782756C223.819 0.461145 223.902 0.234823 224.057 0.12762C224.224 0.00850474 224.45 -0.0272254 224.748 0.0204206C225.045 0.0680668 225.32 0.127626 225.582 0.199095C225.832 0.270564 226.142 0.401589 226.523 0.615996C226.892 0.818492 227.142 0.973335 227.285 1.06863C227.428 1.16392 227.606 1.25922 227.845 1.3426C229 2.08111 230.036 2.96256 230.966 3.97504C231.109 4.11798 231.216 4.22519 231.311 4.32048C238.005 3.43902 244.677 2.29552 251.323 0.854219C251.788 0.75893 252.597 0.997163 253.741 1.54509C254.563 1.96199 255.48 2.61713 256.504 3.48666Z" fill="url(#paint4_linear_1304_11)"/>
<path d="M281.008 66.7724C281.056 67.1893 280.889 67.4275 280.519 67.499C280.151 67.5705 279.662 67.4871 279.066 67.2607C278.471 67.0345 277.994 66.832 277.649 66.6771C277.304 66.5103 276.97 66.3436 276.648 66.153C275.35 65.4621 274.206 64.5926 273.182 63.5563C272.17 62.52 271.658 61.7458 271.658 61.2336C271.562 59.2443 271.443 56.2545 271.276 52.2642C271.109 48.2738 270.991 45.2841 270.895 43.2949C270.847 43.0685 270.847 42.9017 270.895 42.8064L269.989 18.5665C269.799 18.6619 269.621 18.769 269.43 18.8763C269.251 18.9954 269.084 19.1025 268.942 19.2216C268.798 19.3408 268.643 19.448 268.453 19.5671C268.262 19.6862 268.084 19.8054 267.893 19.9483C267.524 20.2223 266.857 20.2223 265.88 19.9483C264.999 19.6743 263.831 19.043 262.354 18.0781C261.056 17.1967 260.067 16.3033 259.376 15.3742C258.59 14.3618 258.364 13.7067 258.685 13.4327C258.829 13.3373 258.936 13.2659 259.031 13.2302C260.412 12.313 262.295 11.0146 264.677 9.34706C267.059 7.67942 269.228 6.17857 271.181 4.80875C273.146 3.45083 275.004 2.1644 276.756 0.961332C277.173 0.687369 277.84 0.687369 278.769 0.961332C279.686 1.23529 280.889 1.86661 282.366 2.83144C283.617 3.71289 284.605 4.60625 285.344 5.53535C286.13 6.54783 286.333 7.17914 285.963 7.40545C283.521 9.15643 281.067 10.8717 278.625 12.5274C278.805 12.8014 278.9 13.0634 278.9 13.2898C279.126 18.2807 279.436 25.7492 279.805 35.7191C288.846 28.0124 296.493 19.4718 302.723 10.0975C302.949 9.72823 303.628 9.72823 304.736 10.0975C305.654 10.3238 306.832 10.9551 308.262 11.9676C309.548 12.849 310.573 13.7424 311.311 14.6715C312.003 15.5529 312.217 16.1723 311.931 16.5416C307.357 23.4621 301.961 29.9777 295.731 36.0645C296.612 36.3385 297.458 36.6601 298.292 37.0294C300.186 37.8632 301.913 38.8637 303.486 40.0429C305.058 41.2223 306.44 42.6873 307.643 44.4384C308.846 46.1893 309.537 48.0356 309.715 49.9772C309.81 50.9063 309.739 53.3958 309.513 57.4576C309.466 58.339 309.393 59.6732 309.311 61.4718C309.215 63.2704 309.144 64.6045 309.107 65.4859L308.202 82.1025C308.202 82.3288 308.155 82.5075 308.06 82.6266C307.965 82.7458 307.821 82.8053 307.607 82.8291C307.404 82.8529 307.19 82.8529 306.987 82.8291C306.785 82.8053 306.535 82.7458 306.26 82.6505C305.987 82.5551 305.737 82.4598 305.534 82.3764C305.331 82.2811 305.082 82.174 304.808 82.031C304.534 81.8881 304.343 81.8047 304.26 81.7571C304.164 81.7094 304.033 81.638 303.843 81.5546C302.544 80.816 301.401 79.9346 300.377 78.9221C299.317 77.862 298.805 77.0759 298.852 76.5637C298.947 74.765 299.078 72.0373 299.269 68.3924C299.448 64.7475 299.59 62.0197 299.686 60.2211C299.734 59.2563 299.829 57.7911 299.96 55.8258C300.102 53.8603 300.198 52.1093 300.269 50.5608C300.341 49.0124 300.377 47.5234 300.377 46.094C300.377 44.9386 300.281 43.9262 300.102 43.0447C300.007 42.6754 299.936 42.4015 299.9 42.2109H299.829H299.757C299.388 42.1156 298.994 42.068 298.577 42.068C297.792 41.9727 297.053 41.9488 296.362 41.9964C294.564 42.0918 292.717 42.461 290.823 43.1042C288.144 44.0333 284.641 45.9868 280.293 48.9885C280.508 53.1576 280.734 59.0657 281.008 66.7724ZM301.437 42.6754L301.366 42.604H301.437V42.6754Z" fill="url(#paint5_linear_1304_11)"/>
<path d="M342.71 60.2688C338.601 60.9596 334.014 59.018 328.929 54.4559C326.295 52.0618 324.235 49.1672 322.734 45.7963C321.233 42.4253 320.435 38.9233 320.34 35.2665C320.244 30.2756 321.472 24.3556 324.009 17.4707C323.961 17.4707 323.854 17.4827 323.699 17.5065C323.532 17.5302 323.437 17.5422 323.39 17.5422C321.817 17.6852 319.696 16.6607 317.016 14.4928C316.79 14.3141 316.516 14.0759 316.219 13.8019C315.92 13.528 315.552 13.1349 315.111 12.6227C314.67 12.1105 314.455 11.6936 314.455 11.372C314.455 11.0504 314.623 10.8002 314.944 10.6097C315.087 10.562 315.242 10.5025 315.432 10.431C315.611 10.3596 315.754 10.3238 315.849 10.3238C316.171 10.1809 316.588 10.2047 317.1 10.3953C329.381 9.23985 341.317 6.95285 352.894 3.53426C353.359 3.39132 354.253 3.62955 355.599 4.22512C356.48 4.64203 357.493 5.26142 358.648 6.09523C359.291 6.60742 359.779 6.98859 360.101 7.23873C360.422 7.48888 360.804 7.9296 361.245 8.549C361.686 9.16841 361.828 9.74012 361.697 10.2405C359.577 21.0441 357.779 29.144 356.302 34.5399C353.896 43.2591 351.406 50.1201 348.821 55.111C347.237 58.1485 345.2 59.8518 342.71 60.2688ZM335.849 52.8598C336.635 52.4905 337.421 51.8235 338.207 50.8467C338.434 50.5252 338.672 50.1916 338.898 49.8462C339.125 49.5008 339.351 49.1315 339.554 48.7384C339.756 48.3453 339.947 47.988 340.113 47.6664C340.268 47.3448 340.447 46.9517 340.637 46.4871C340.816 46.0226 340.971 45.6533 341.09 45.3793C341.209 45.1054 341.364 44.7123 341.579 44.2001C341.781 43.6879 341.936 43.3187 342.031 43.0923C345.164 35.4332 348.011 25.511 350.548 13.3136C344.366 14.743 338.089 15.8508 331.716 16.6369C332.597 17.3278 333.312 18.0187 333.86 18.7096C334.503 19.5433 334.741 20.1866 334.55 20.6511C332.883 24.7606 331.632 28.4888 330.774 31.836C329.916 35.1831 329.607 38.5183 329.834 41.8417C330.012 44.9863 330.643 47.7259 331.703 50.0844C332.073 50.9183 332.466 51.7044 332.883 52.4429C333.062 52.7645 333.252 53.0384 333.443 53.2767L333.514 53.4196C333.61 53.4196 333.741 53.4196 333.931 53.4196C334.61 53.3244 335.253 53.1337 335.849 52.8598ZM334.395 54.587L334.539 54.7299C334.491 54.6823 334.443 54.6346 334.395 54.587Z" fill="url(#paint6_linear_1304_11)"/>
<path d="M343.83 105.759C329.715 110.107 315.349 112.882 300.758 114.085C292.348 114.753 285.415 114.884 279.96 114.478C272.337 113.99 266.155 112.299 261.425 109.392C260.698 108.844 260.805 107.307 261.735 104.794C262.557 102.555 263.938 100.161 265.88 97.6236C265.94 97.4802 266.059 97.2896 266.237 97.0277C266.416 96.7774 266.571 96.6108 266.702 96.528C267.787 95.0145 268.87 94.1692 269.942 94.0142C270.681 93.8832 271.026 94.4311 271.002 95.6461L271.014 95.8483C276.077 98.6596 282.497 100.137 290.299 100.268C303.533 100.53 317.672 99.1362 332.717 96.063C346.82 93.0735 360.531 88.6541 373.836 82.8175C374.289 82.5792 374.598 82.6626 374.777 83.0914C374.944 83.5202 375.028 83.9729 374.992 84.4493C374.944 85.5333 374.443 87.1414 373.479 89.2618C371.549 93.4904 369.369 96.1227 366.951 97.1471C359.328 100.506 351.609 103.389 343.83 105.759Z" fill="url(#paint7_linear_1304_11)"/>
<defs>
<linearGradient id="paint0_linear_1304_11" x1="26.7549" y1="0.755859" x2="26.7549" y2="82.847" gradientUnits="userSpaceOnUse">
<stop offset="0.171875" stop-color="#B16CEA"/>
<stop offset="0.567708" stop-color="#FF5E69" stop-opacity="0.762712"/>
<stop offset="0.973958" stop-color="#FFA84B"/>
</linearGradient>
<linearGradient id="paint1_linear_1304_11" x1="78.3839" y1="8.22437" x2="78.3839" y2="74.893" gradientUnits="userSpaceOnUse">
<stop offset="0.171875" stop-color="#B16CEA"/>
<stop offset="0.567708" stop-color="#FF5E69" stop-opacity="0.762712"/>
<stop offset="0.973958" stop-color="#FFA84B"/>
</linearGradient>
<linearGradient id="paint2_linear_1304_11" x1="129.643" y1="10.2852" x2="129.643" y2="75.2982" gradientUnits="userSpaceOnUse">
<stop offset="0.171875" stop-color="#B16CEA"/>
<stop offset="0.567708" stop-color="#FF5E69" stop-opacity="0.762712"/>
<stop offset="0.973958" stop-color="#FFA84B"/>
</linearGradient>
<linearGradient id="paint3_linear_1304_11" x1="173.809" y1="9.32056" x2="173.809" y2="68.2473" gradientUnits="userSpaceOnUse">
<stop offset="0.171875" stop-color="#B16CEA"/>
<stop offset="0.567708" stop-color="#FF5E69" stop-opacity="0.762712"/>
<stop offset="0.973958" stop-color="#FFA84B"/>
</linearGradient>
<linearGradient id="paint4_linear_1304_11" x1="227.927" y1="0" x2="227.927" y2="65.3441" gradientUnits="userSpaceOnUse">
<stop offset="0.171875" stop-color="#B16CEA"/>
<stop offset="0.567708" stop-color="#FF5E69" stop-opacity="0.762712"/>
<stop offset="0.973958" stop-color="#FFA84B"/>
</linearGradient>
<linearGradient id="paint5_linear_1304_11" x1="285.299" y1="0.755859" x2="285.299" y2="82.847" gradientUnits="userSpaceOnUse">
<stop offset="0.171875" stop-color="#B16CEA"/>
<stop offset="0.567708" stop-color="#FF5E69" stop-opacity="0.762712"/>
<stop offset="0.973958" stop-color="#FFA84B"/>
</linearGradient>
<linearGradient id="paint6_linear_1304_11" x1="338.099" y1="3.4939" x2="338.099" y2="60.4048" gradientUnits="userSpaceOnUse">
<stop offset="0.171875" stop-color="#B16CEA"/>
<stop offset="0.567708" stop-color="#FF5E69" stop-opacity="0.762712"/>
<stop offset="0.973958" stop-color="#FFA84B"/>
</linearGradient>
<linearGradient id="paint7_linear_1304_11" x1="317.975" y1="82.6863" x2="317.975" y2="114.708" gradientUnits="userSpaceOnUse">
<stop offset="0.171875" stop-color="#B16CEA"/>
<stop offset="0.567708" stop-color="#FF5E69" stop-opacity="0.762712"/>
<stop offset="0.973958" stop-color="#FFA84B"/>
</linearGradient>
</defs>
</svg>
